<?xml version="1.0" encoding="iso-8859-1"?>
<!-- Uploaded to: SVG Repo, www.svgrepo.com, Generator: SVG Repo Mixer Tools -->
<svg height="800px" width="800px" version="1.1" id="Layer_1" xmlns="http://www.w3.org/2000/svg" xmlns:xlink="http://www.w3.org/1999/xlink" 
	 viewBox="0 0 508.966 508.966" xml:space="preserve">
<path style="fill:#33A5D2;" d="M448.483,94.566c0-17.2-14.4-31.6-32-31.6h-375.6c-17.2,0-32.4,14.4-32.4,31.6v4v47.6v16v244.8v19.6
	v47.6c0,17.6,15.2,28.8,32.4,28.8h415.2c17.2,0,32.4-11.6,32.4-28.8v-111.2h3.2c8.8,0,12.8-6.8,12.8-15.2v-63.2
	c0-8.8-4-17.2-12.8-17.2h-3.2v-18v-86.8v-19.6c0-17.2-14.8-35.2-32.4-35.2h-7.6L448.483,94.566L448.483,94.566z"/>
<path style="fill:#73BADD;" d="M440.483,450.566c0,4.4-3.6,4.4-8,4.4h-407.6l-16.4-18v-275.2l9.2,13.2h414.8c4.4,0,8,6.4,8,10.4
	V450.566L440.483,450.566z"/>
<path style="fill:#33A5D2;" d="M500.483,346.966c0,8.8-7.2,16-16,16h-148c-8.8,0-16-7.2-16-16v-64c0-8.8,7.2-16,16-16h148.4
	c8.8,0,16,7.2,16,16C500.483,282.966,500.483,346.966,500.483,346.966z"/>
<circle style="fill:#2884A9;" cx="377.283" cy="316.166" r="27.6"/>
<polygon style="fill:#54B265;" points="43.283,93.366 418.883,3.366 443.283,104.566 46.883,106.566 "/>
<path style="fill:#4BB19B;" d="M121.283,106.566l242.8-56.8c4,17.6,21.6,28.4,39.2,24.4l7.6,32.4H121.283z"/>
<path style="fill:#54B265;" d="M183.283,106.566c7.2-10.8,16.8-18.4,28.4-21.2c14.4-3.2,29.6,1.2,42.8,12l9.2,9.2H183.283z"/>
<path d="M460.083,508.966h-415.2c-18.8,0-42.4-18.4-42.4-38.8v-315.2c0-2.4,1.6-4,4-4s4,1.6,4,4v315.2c0,15.6,20,30.8,34.4,30.8
	h415.2c14.8,0,22.4-15.6,22.4-30.8v-103.2c0-2.4,1.6-4,4-4s4,1.6,4,4v103.2C490.483,489.366,480.083,508.966,460.083,508.966z"/>
<path d="M486.483,266.966c-2.4,0-4-1.6-4-4v-105.2c0-9.2-2.8-24.8-22.4-24.8h-414.4c-2.8,0.4-26.4,2-37.2-8c-4-3.6-6-8-6-13.6
	c0-2.4,1.6-4,4-4s4,1.6,4,4c0,3.2,1.2,5.6,3.2,7.6c7.2,6.8,25.2,6.4,31.2,6h0.4h414.8c18.8,0,30.4,12.4,30.4,32.8v105.2
	C490.483,265.366,488.883,266.966,486.483,266.966z"/>
<path d="M486.483,246.966c-2.4,0-4-1.6-4-4v-104.8c0-9.2-2.8-25.2-22.4-25.2h-414.8c-2,0-3.6-1.6-4-3.6l-2.4-15.6
	c-0.4-2,1.2-4.4,3.2-4.4c2-0.4,4.4,1.2,4.4,3.2l1.6,12h411.2c18.8,0,30.4,12.8,30.4,33.2v105.2
	C490.483,245.366,488.883,246.966,486.483,246.966z"/>
<path d="M450.483,102.966c-2.4,0-4-1.6-4-4v-8.4c0-9.6-5.2-19.6-12.8-24.8c-2-1.2-2.4-3.6-1.2-5.6s3.6-2.4,5.6-1.2
	c10,6.8,16,19.2,16,31.6v8.4C454.483,101.366,452.883,102.966,450.483,102.966z"/>
<path d="M6.483,406.966c-2.4,0-4-1.6-4-4v-312.4c0-19.2,22-29.6,42.4-29.6h115.6c2.4,0,4,1.6,4,4s-1.6,4-4,4h-115.6
	c-14.4,0-34.4,6.8-34.4,21.6v312.4C10.483,405.366,8.883,406.966,6.483,406.966z"/>
<path d="M452.083,110.566c-2,0-3.6-1.6-4-3.6c-0.8-8-5.2-14.8-12-19.6c-2-1.2-2.4-3.6-1.2-5.6s3.6-2.4,5.6-1.2
	c8.4,5.6,14,14.8,15.6,25.2c0.4,2-1.2,4-3.6,4.4C452.083,110.566,452.083,110.566,452.083,110.566z"/>
<path d="M486.483,368.966h-148.4c-10.8,0-20-8.8-20-20v-64.4c0-10.8,8.8-20,20-20h148.4c10.8,0,20,8.8,20,20v64.4
	C506.483,360.166,497.683,368.966,486.483,368.966z M338.483,272.966c-6.4,0-12,5.2-12,12v64.4c0,6.4,5.2,12,12,12h148.4
	c6.4,0,12-5.2,12-12v-64.4c0-6.4-5.2-12-12-12H338.483z"/>
<path d="M377.283,343.766c-17.6,0-31.6-14.4-31.6-31.6s14.4-31.6,31.6-31.6s31.6,14.4,31.6,31.6S394.483,343.766,377.283,343.766z
	 M377.283,288.166c-13.2,0-23.6,10.8-23.6,23.6s10.8,23.6,23.6,23.6s23.6-10.8,23.6-23.6S390.083,288.166,377.283,288.166z"/>
<path d="M377.283,327.766c-8.8,0-16-7.2-16-16s7.2-16,16-16c2.4,0,4,1.6,4,4s-1.6,4-4,4c-4.4,0-8,3.6-8,8s3.6,8,8,8s8-3.6,8-8
	c0-2.4,1.6-4,4-4s4,1.6,4,4C392.883,320.566,385.683,327.766,377.283,327.766z"/>
<path d="M432.483,460.966h-391.2c-20,0-38.4-18-38.4-37.2c0-2.4,1.6-4,4-4s4,1.6,4,4c0,14.8,15.2,29.2,30.4,29.2h391.2
	c1.6,0,2-0.4,2-0.4c0.4-0.4,0.4-3.2,0.4-4s0-1.6,0-2v-79.6c0-2.4,1.6-4,4-4s4,1.6,4,4v79.2c0,0.4,0,1.2,0,1.6c0,3.2,0.4,7.2-2.4,10
	C438.083,460.166,435.683,460.966,432.483,460.966z"/>
<path d="M438.483,242.966c-2.4,0-4-1.6-4-4v-58l0,0h-388.8c-0.8,0-23.6,0.8-35.6-10.8c-4.8-4.8-7.2-10.8-7.2-17.6c0-2.4,1.6-4,4-4
	s4,1.6,4,4c0,4.8,1.6,8.8,4.8,12c9.6,9.2,29.6,8.8,30,8.8h389.2c2.4,0,4.8,0,6.4,1.6c1.6,1.6,1.6,3.6,1.6,6.4v57.6
	C442.483,241.366,440.883,242.966,438.483,242.966z"/>
<path d="M443.283,110.566c-2,0-3.6-1.2-4-3.2l-23.2-98.4l-372,87.2c-2,0.4-4.4-0.8-4.8-2.8c-0.4-2,0.8-4.4,2.8-4.8l375.6-88.4
	c1.2-0.4,2,0,3.2,0.4c0.8,0.4,1.6,1.6,1.6,2.4l24,102.4c0.4,2-0.8,4.4-2.8,4.8C444.083,110.566,443.683,110.566,443.283,110.566z"/>
<path d="M410.883,110.566c-2,0-3.6-1.2-4-3.2l-6.8-28.8c-17.2,2-33.2-8-38.8-24.4l-239.2,56c-2,0.4-4.4-0.8-4.8-2.8
	c-0.4-2,0.8-4.4,2.8-4.8l242.8-56.8c2-0.4,4.4,0.8,4.8,2.8c3.6,15.2,19.2,24.8,34.4,21.2c2-0.4,4.4,0.8,4.8,2.8l7.6,32.4
	c0.4,2-0.8,4.4-2.8,4.8C411.283,110.566,410.883,110.566,410.883,110.566z"/>
<path d="M183.283,110.566c-0.8,0-1.6-0.4-2-0.8c-2-1.2-2.4-3.6-1.2-5.6c8-12,18.4-20,30.8-22.8c15.2-3.6,31.6,0.8,46,12.4
	c1.6,1.2,2,4,0.8,5.6s-4,2-5.6,0.8c-12.8-10-26.4-14-39.2-11.2c-10.4,2.4-19.2,9.2-26,19.6
	C186.083,109.766,184.883,110.566,183.283,110.566z"/>
<path d="M398.883,60.166c-2,0-3.6-1.2-4-3.2l-3.2-14c-0.4-2,0.8-4.4,2.8-4.8s4.4,0.8,4.8,2.8l3.2,14c0.4,2-0.8,4.4-2.8,4.8
	C399.683,59.766,399.283,60.166,398.883,60.166z"/>
<path d="M382.483,49.366c-2,0-3.6-1.2-4-3.2s0.8-4.4,2.8-4.8l13.2-3.2c2-0.4,4.4,0.8,4.8,2.8c0.4,2-0.8,4.4-2.8,4.8l-13.2,3.2
	C382.883,49.366,382.883,49.366,382.483,49.366z"/>
</svg>